<svg width="48" height="48" viewBox="0 0 48 48" fill="none" xmlns="http://www.w3.org/2000/svg">
<rect width="48" height="48" rx="24" fill="#101010" style="fill:#101010;fill:color(display-p3 0.0625 0.0625 0.0625);fill-opacity:1;"/>
<path fill-rule="evenodd" clip-rule="evenodd" d="M14.3744 23.39C19.7412 21.0518 23.3199 19.5103 25.1105 18.7655C30.223 16.639 31.2854 16.2697 31.9778 16.2575C32.1301 16.2548 32.4706 16.2925 32.6912 16.4715C33.0214 16.7394 33.0204 17.3121 32.984 17.6948C32.7069 20.6058 31.5081 27.67 30.8982 30.9304C30.6402 32.3099 30.132 32.7725 29.6401 32.8178C28.571 32.9162 27.7592 32.1113 26.7238 31.4325C25.1035 30.3704 24.1881 29.7092 22.6153 28.6728C20.7977 27.475 21.976 26.8167 23.0119 25.7408C23.283 25.4592 27.9934 21.1748 28.0845 20.7861C28.0959 20.7375 28.1065 20.5563 27.9989 20.4606C27.8912 20.3649 27.7323 20.3977 27.6177 20.4237C27.4552 20.4606 24.8668 22.1714 19.8524 25.5563C19.1177 26.0608 18.4522 26.3066 17.856 26.2937C17.1986 26.2795 15.9342 25.922 14.9943 25.6165C13.8414 25.2417 12.9251 25.0436 13.0048 24.4071C13.0464 24.0756 13.5029 23.7366 14.3744 23.39Z" fill="white" style="fill:white;fill-opacity:1;"/>
</svg>
