<svg width="48" height="48" viewBox="0 0 48 48" fill="none" xmlns="http://www.w3.org/2000/svg">
<rect width="48" height="48" rx="24" fill="#101010" style="fill:#101010;fill:color(display-p3 0.0625 0.0625 0.0625);fill-opacity:1;"/>
<path fill-rule="evenodd" clip-rule="evenodd" d="M14.8357 18.39C14 19.4221 14 20.948 14 24C14 27.052 14 28.5779 14.8357 29.61C15.0006 29.8136 15.1864 29.9994 15.39 30.1643C16.4221 31 17.948 31 21 31H27C30.052 31 31.5779 31 32.61 30.1643C32.8136 29.9994 32.9994 29.8136 33.1643 29.61C34 28.5779 34 27.052 34 24C34 20.948 34 19.4221 33.1643 18.39C32.9994 18.1864 32.8136 18.0006 32.61 17.8357C31.5779 17 30.052 17 27 17H21C17.948 17 16.4221 17 15.39 17.8357C15.1864 18.0006 15.0006 18.1864 14.8357 18.39ZM28 24L22 27.3905V20.6094L28 24Z" fill="white" style="fill:white;fill-opacity:1;"/>
</svg>
